<svg xmlns="http://www.w3.org/2000/svg" width="40" height="40" viewBox="0 0 40 40">
  <g fill="none" fill-rule="evenodd">
    <rect width="40" height="40" fill="#6153F4" rx="8"/>
    <path fill="#FFF" d="M12,16 L12,24 C12,26.209139 13.790861,28 16,28 L24,28 C26.209139,28 28,26.209139 28,24 L28,16 C28,13.790861 26.209139,12 24,12 L16,12 C13.790861,12 12,13.790861 12,16 Z M14,16 C14,14.8954305 14.8954305,14 16,14 L24,14 C25.1045695,14 26,14.8954305 26,16 L26,24 C26,25.1045695 25.1045695,26 24,26 L16,26 C14.8954305,26 14,25.1045695 14,24 L14,16 Z"/>
    <path fill="#FFF" d="M18,10 L19,10 C19.5522847,10 20,10.4477153 20,11 L20,13 C20,13.5522847 19.5522847,14 19,14 L18,14 C17.4477153,14 17,13.5522847 17,13 L17,11 C17,10.4477153 17.4477153,10 18,10 Z"/>
    <path fill="#FFF" d="M21,10 L22,10 C22.5522847,10 23,10.4477153 23,11 L23,13 C23,13.5522847 22.5522847,14 22,14 L21,14 C20.4477153,14 20,13.5522847 20,13 L20,11 C20,10.4477153 20.4477153,10 21,10 Z"/>
    <path fill="#FFF" d="M9,19 L13,19 C13.5522847,19 14,19.4477153 14,20 L14,21 C14,21.5522847 13.5522847,22 13,22 L9,22 C8.44771525,22 8,21.5522847 8,21 L8,20 C8,19.4477153 8.44771525,19 9,19 Z"/>
    <path fill="#FFF" d="M27,19 L31,19 C31.5522847,19 32,19.4477153 32,20 L32,21 C32,21.5522847 31.5522847,22 31,22 L27,22 C26.4477153,22 26,21.5522847 26,21 L26,20 C26,19.4477153 26.4477153,19 27,19 Z"/>
    <path fill="#FFF" d="M20,19 C20.5522847,19 21,19.4477153 21,20 C21,20.5522847 20.5522847,21 20,21 C19.4477153,21 19,20.5522847 19,20 C19,19.4477153 19.4477153,19 20,19 Z"/>
    <path fill="#FFF" d="M17,22 C17.5522847,22 18,22.4477153 18,23 C18,23.5522847 17.5522847,24 17,24 C16.4477153,24 16,23.5522847 16,23 C16,22.4477153 16.4477153,22 17,22 Z"/>
    <path fill="#FFF" d="M23,22 C23.5522847,22 24,22.4477153 24,23 C24,23.5522847 23.5522847,24 23,24 C22.4477153,24 22,23.5522847 22,23 C22,22.4477153 22.4477153,22 23,22 Z"/>
  </g>
</svg> 